<svg width="840" height="156" viewBox="0 0 840 156" fill="none" xmlns="http://www.w3.org/2000/svg">
<g filter="url(#filter0_d_148_710)">
<path d="M8.76528 137.359H18.709C21.0326 137.358 23.2605 136.433 24.9031 134.79C26.5457 133.146 27.4687 130.918 27.4691 128.594V91.177C27.4691 88.8532 28.392 86.6244 30.0349 84.9808C31.6778 83.3373 33.9062 82.4135 36.2301 82.4126H101.121C102.271 82.4127 103.411 82.6395 104.474 83.08C105.537 83.5205 106.503 84.1661 107.317 84.98C108.13 85.7939 108.776 86.7601 109.216 87.8234C109.656 88.8867 109.882 90.0263 109.882 91.177V128.594C109.883 130.918 110.807 133.147 112.45 134.79C114.094 136.434 116.322 137.358 118.646 137.359H128.591C130.914 137.358 133.142 136.433 134.785 134.79C136.427 133.146 137.35 130.918 137.351 128.594V8.76443C137.351 7.61372 137.125 6.4742 136.685 5.41095C136.245 4.3477 135.6 3.38155 134.786 2.56768C133.973 1.7538 133.007 1.10814 131.944 0.667578C130.881 0.227012 129.741 0.000167494 128.591 4.38981e-07H8.76528C7.61418 -0.000363911 6.47428 0.22608 5.41072 0.666395C4.34716 1.10671 3.38077 1.75227 2.56678 2.56618C1.75279 3.38009 1.10714 4.34642 0.666719 5.40994C0.226302 6.47346 -0.000252728 7.61333 2.11565e-07 8.76443V128.594C0.000764129 130.919 0.924492 133.148 2.56814 134.791C4.21178 136.435 6.44082 137.359 8.76528 137.359ZM36.2301 27.4734H101.121C102.271 27.4735 103.411 27.7003 104.474 28.1408C105.537 28.5813 106.503 29.227 107.317 30.0409C108.13 30.8547 108.776 31.8209 109.216 32.8842C109.656 33.9475 109.882 35.0871 109.882 36.2379V46.1824C109.881 48.5061 108.958 50.7344 107.315 52.3778C105.672 54.0212 103.444 54.9453 101.121 54.9469H36.2301C33.9067 54.9445 31.6791 54.0203 30.0365 52.377C28.3939 50.7338 27.4706 48.5059 27.4691 46.1824V36.2379C27.4691 33.914 28.392 31.6852 30.0349 30.0417C31.6778 28.3981 33.9062 27.4743 36.2301 27.4734Z" fill="white"/>
<path d="M180.162 27.4734H217.58C218.731 27.4736 219.87 27.7004 220.934 28.141C221.997 28.5816 222.962 29.2272 223.776 30.0411C224.589 30.855 225.235 31.8211 225.675 32.8844C226.115 33.9476 226.341 35.0872 226.341 36.2379V128.594C226.341 130.918 227.264 133.147 228.907 134.79C230.55 136.434 232.778 137.358 235.102 137.359H245.05C247.373 137.358 249.601 136.433 251.244 134.79C252.886 133.146 253.809 130.918 253.81 128.594V36.2379C253.809 35.0868 254.036 33.947 254.477 32.8835C254.917 31.82 255.563 30.8537 256.377 30.0398C257.191 29.2259 258.157 28.5803 259.22 28.14C260.284 27.6996 261.424 27.4731 262.575 27.4734H299.992C301.143 27.4734 302.282 27.2466 303.345 26.8061C304.409 26.3655 305.374 25.7199 306.188 24.906C307.002 24.0921 307.647 23.1259 308.087 22.0626C308.527 20.9994 308.753 19.8598 308.753 18.709V8.76443C308.753 7.61366 308.527 6.47408 308.087 5.41078C307.647 4.34749 307.002 3.38131 306.188 2.56743C305.374 1.75355 304.409 1.1079 303.345 0.66738C302.282 0.226856 301.143 7.87589e-05 299.992 2.54107e-07H180.162C179.011 -0.00027694 177.872 0.226233 176.808 0.666589C175.745 1.10694 174.778 1.75252 173.964 2.56643C173.15 3.38033 172.505 4.34663 172.065 5.4101C171.624 6.47358 171.398 7.61339 171.398 8.76443V18.709C171.398 19.86 171.624 20.9999 172.065 22.0633C172.505 23.1268 173.15 24.0931 173.964 24.907C174.778 25.7209 175.745 26.3665 176.808 26.8068C177.872 27.2472 179.011 27.4737 180.162 27.4734Z" fill="white"/>
<path d="M351.585 27.4734H389.003C390.154 27.4736 391.293 27.7004 392.356 28.141C393.419 28.5816 394.385 29.2272 395.199 30.0411C396.012 30.855 396.657 31.8211 397.097 32.8844C397.538 33.9476 397.764 35.0872 397.763 36.2379V128.594C397.765 130.918 398.689 133.147 400.332 134.791C401.976 136.434 404.204 137.358 406.529 137.359H416.472C418.796 137.358 421.024 136.433 422.667 134.79C424.309 133.146 425.232 130.918 425.233 128.594V36.2379C425.233 33.9133 426.156 31.6841 427.8 30.0404C429.444 28.3968 431.673 27.4734 433.998 27.4734H471.415C473.739 27.4734 475.969 26.5501 477.613 24.9065C479.256 23.2628 480.18 21.0336 480.18 18.709V8.76443C480.18 6.43988 479.256 4.2106 477.613 2.56698C475.969 0.923347 473.739 -1.41773e-05 471.415 2.54107e-07H351.585C350.434 -0.00027694 349.294 0.226233 348.231 0.666589C347.167 1.10694 346.201 1.75252 345.387 2.56643C344.573 3.38033 343.928 4.34663 343.487 5.4101C343.047 6.47358 342.821 7.61339 342.821 8.76443V18.709C342.821 19.86 343.047 20.9999 343.487 22.0633C343.928 23.1268 344.573 24.0931 345.387 24.907C346.201 25.7209 347.167 26.3665 348.231 26.8068C349.294 27.2472 350.434 27.4737 351.585 27.4734Z" fill="white"/>
<path d="M523.008 137.359H532.953C535.277 137.359 537.506 136.435 539.149 134.791C540.793 133.147 541.716 130.919 541.717 128.594V91.177C541.717 90.026 541.943 88.8862 542.384 87.8227C542.824 86.7592 543.47 85.7929 544.284 84.979C545.097 84.1651 546.064 83.5196 547.127 83.0792C548.191 82.6388 549.33 82.4123 550.482 82.4126H615.364C616.515 82.4128 617.655 82.1862 618.719 81.7458C619.782 81.3054 620.749 80.6597 621.563 79.8458C622.377 79.0318 623.022 78.0654 623.463 77.0019C623.903 75.9383 624.13 74.7984 624.13 73.6473V63.7036C624.128 61.3801 623.204 59.1522 621.56 57.51C619.917 55.8678 617.688 54.9458 615.364 54.9469H550.482C548.157 54.946 545.929 54.0223 544.285 52.3788C542.642 50.7354 541.718 48.5066 541.717 46.1824V36.2379C541.717 35.0868 541.943 33.947 542.384 32.8835C542.824 31.82 543.47 30.8538 544.284 30.0398C545.097 29.2259 546.064 28.5804 547.127 28.14C548.191 27.6996 549.33 27.4731 550.482 27.4734H613.189C614.34 27.4731 615.48 27.6996 616.544 28.14C617.607 28.5803 618.574 29.2259 619.388 30.0398C620.202 30.8537 620.847 31.82 621.288 32.8834C621.728 33.9469 621.955 35.0868 621.955 36.2379V46.1824C621.955 48.5066 622.879 50.7354 624.522 52.3788C626.166 54.0223 628.395 54.946 630.719 54.9469H640.663C642.987 54.9454 645.215 54.0216 646.859 52.3783C648.502 50.735 649.426 48.5065 649.428 46.1824V8.76443C649.428 6.43988 648.504 4.21061 646.86 2.56698C645.217 0.923351 642.987 -1.12956e-05 640.663 2.51494e-07H523.008C521.857 -0.000275514 520.717 0.226235 519.654 0.666592C518.59 1.10695 517.624 1.75252 516.81 2.56643C515.996 3.38034 515.351 4.34663 514.91 5.41011C514.47 6.47358 514.243 7.6134 514.244 8.76443V128.594C514.244 130.919 515.168 133.147 516.811 134.791C518.455 136.435 520.684 137.359 523.008 137.359Z" fill="white"/>
<path d="M632.895 82.4126H642.838C645.163 82.4126 647.392 83.336 649.036 84.9796C650.679 86.6233 651.603 88.8526 651.603 91.177V128.595C651.603 129.746 651.376 130.886 650.936 131.949C650.495 133.012 649.85 133.979 649.036 134.792C648.222 135.606 647.256 136.252 646.192 136.692C645.129 137.133 643.989 137.359 642.838 137.359H632.895C630.57 137.359 628.34 136.436 626.697 134.792C625.053 133.148 624.129 130.919 624.129 128.594V91.1779C624.129 90.0268 624.356 88.887 624.797 87.8235C625.237 86.7601 625.883 85.7938 626.697 84.9799C627.511 84.166 628.477 83.5203 629.54 83.0798C630.604 82.6393 631.744 82.4126 632.895 82.4126Z" fill="white"/>
<path d="M685.646 8.76443V128.594C685.647 130.918 686.57 133.146 688.212 134.789C689.855 136.432 692.082 137.357 694.406 137.359H704.354C706.677 137.358 708.906 136.434 710.548 134.79C712.191 133.147 713.114 130.918 713.115 128.594V91.177C713.114 90.026 713.341 88.8862 713.781 87.8227C714.222 86.7592 714.867 85.7929 715.681 84.979C716.495 84.1651 717.461 83.5196 718.525 83.0792C719.588 82.6388 720.728 82.4123 721.879 82.4126H786.766C789.091 82.4128 791.32 83.3362 792.963 84.9798C794.607 86.6235 795.531 88.8526 795.531 91.177V128.594C795.531 130.918 796.454 133.147 798.097 134.79C799.74 136.434 801.968 137.358 804.292 137.359H814.235C816.56 137.359 818.789 136.435 820.432 134.791C822.075 133.147 822.999 130.919 823 128.594V8.76443C823 7.61339 822.774 6.47358 822.333 5.4101C821.893 4.34663 821.247 3.38033 820.433 2.56643C819.619 1.75252 818.653 1.10694 817.59 0.666589C816.526 0.226233 815.386 -0.00027694 814.235 2.54107e-07H694.406C692.082 0.00106431 689.854 0.924936 688.211 2.56848C686.568 4.21202 685.645 6.44068 685.646 8.76443ZM786.766 54.9469H721.879C719.555 54.946 717.326 54.0223 715.683 52.3788C714.039 50.7354 713.116 48.5066 713.115 46.1824V36.2379C713.114 35.0868 713.341 33.947 713.781 32.8835C714.222 31.8201 714.867 30.8538 715.681 30.0399C716.495 29.226 717.461 28.5804 718.525 28.14C719.588 27.6997 720.728 27.4732 721.879 27.4734H786.766C789.091 27.4736 791.32 28.3971 792.963 30.0407C794.607 31.6843 795.531 33.9135 795.531 36.2379V46.1824C795.529 48.5064 794.605 50.7347 792.962 52.378C791.319 54.0213 789.09 54.9453 786.766 54.9469Z" fill="white"/>
</g>
<defs>
<filter id="filter0_d_148_710" x="0" y="0" width="839.8" height="155.159" filterUnits="userSpaceOnUse" color-interpolation-filters="sRGB">
<feFlood flood-opacity="0" result="BackgroundImageFix"/>
<feColorMatrix in="SourceAlpha" type="matrix" values="0 0 0 0 0 0 0 0 0 0 0 0 0 0 0 0 0 0 127 0" result="hardAlpha"/>
<feOffset dx="9" dy="10"/>
<feGaussianBlur stdDeviation="3.9"/>
<feComposite in2="hardAlpha" operator="out"/>
<feColorMatrix type="matrix" values="0 0 0 0 0 0 0 0 0 0 0 0 0 0 0 0 0 0 0.08 0"/>
<feBlend mode="normal" in2="BackgroundImageFix" result="effect1_dropShadow_148_710"/>
<feBlend mode="normal" in="SourceGraphic" in2="effect1_dropShadow_148_710" result="shape"/>
</filter>
</defs>
</svg>
